<svg width="351" height="189" viewBox="0 0 351 189" fill="none" xmlns="http://www.w3.org/2000/svg">
<rect width="350" height="189" rx="7" fill="url(#paint0_linear_3_559)"/>
<path d="M219 86C364 86 350 6 350 6V182C350 185.866 346.866 189 343 189H50C50 189 74 86 219 86Z" fill="url(#paint1_linear_3_559)" fill-opacity="0.59"/>
<path d="M170 55C315 55 350 6 350 6V182C350 185.866 346.866 189 343 189H50C50 189 25 55 170 55Z" fill="url(#paint2_linear_3_559)" fill-opacity="0.59"/>
<defs>
<linearGradient id="paint0_linear_3_559" x1="1.05004e-05" y1="141.181" x2="163.363" y2="-125.328" gradientUnits="userSpaceOnUse">
<stop stop-color="#FFA450"/>
<stop offset="0.604477" stop-color="#FF5C00"/>
</linearGradient>
<linearGradient id="paint1_linear_3_559" x1="50" y1="142.699" x2="216.154" y2="-97.2571" gradientUnits="userSpaceOnUse">
<stop offset="0.302902" stop-color="#FF7A00" stop-opacity="0.1"/>
<stop offset="0.64125" stop-color="white" stop-opacity="0.26"/>
</linearGradient>
<linearGradient id="paint2_linear_3_559" x1="50" y1="142.699" x2="216.154" y2="-97.2571" gradientUnits="userSpaceOnUse">
<stop offset="0.302902" stop-color="#FF7A00" stop-opacity="0.1"/>
<stop offset="0.64125" stop-color="white" stop-opacity="0.26"/>
</linearGradient>
</defs>
</svg>
